<?xml version="1.0" encoding="UTF-8" standalone="no"?><!DOCTYPE score-partwise PUBLIC "-//Recordare//DTD MusicXML 3.1 Partwise//EN" "http://www.musicxml.org/dtds/partwise.dtd"><score-partwise version="3.1"><work><work-title>Au Clair De La Lune for Guitar</work-title></work><identification><encoding><software>Flat</software><encoding-date>2020-12-02</encoding-date></encoding><source>https://flat.io/score/570ff133c1147a39052befc0-au-clair-de-la-lune-for-guitar</source></identification><defaults><scaling><millimeters>7</millimeters><tenths>40</tenths></scaling><page-layout><page-height>1596.5714285714287</page-height><page-width>1233.7142857142858</page-width><page-margins type="both"><left-margin>72.57142857142857</left-margin><right-margin>72.57142857142857</right-margin><top-margin>72.57142857142857</top-margin><bottom-margin>72.57142857142857</bottom-margin></page-margins></page-layout><system-layout><system-distance>115.2</system-distance></system-layout><staff-layout><staff-distance>72.57142857142857</staff-distance></staff-layout></defaults><credit><credit-type>title</credit-type><credit-words>Au Clair De La Lune for Guitar</credit-words></credit><part-list><score-part id="P1"><part-name>Guitar</part-name><part-abbreviation>Guit.</part-abbreviation><score-instrument id="P1-I1"><instrument-name>Acoustic Guitar</instrument-name></score-instrument><midi-instrument id="P1-I1"><midi-channel>1</midi-channel><midi-program>26</midi-program></midi-instrument></score-part></part-list><part id="P1"><measure number="1"><barline location="left"><bar-style>heavy-light</bar-style><repeat direction="forward"/></barline><attributes><divisions>1</divisions><key><fifths>0</fifths></key><time><beats>4</beats><beat-type>4</beat-type></time><clef><sign>G</sign><line>2</line><clef-octave-change>-1</clef-octave-change></clef><staff-details><staff-lines>6</staff-lines><staff-tuning line="1"><tuning-step>E</tuning-step><tuning-alter>0</tuning-alter><tuning-octave>2</tuning-octave></staff-tuning><staff-tuning line="2"><tuning-step>A</tuning-step><tuning-alter>0</tuning-alter><tuning-octave>2</tuning-octave></staff-tuning><staff-tuning line="3"><tuning-step>D</tuning-step><tuning-alter>0</tuning-alter><tuning-octave>3</tuning-octave></staff-tuning><staff-tuning line="4"><tuning-step>G</tuning-step><tuning-alter>0</tuning-alter><tuning-octave>3</tuning-octave></staff-tuning><staff-tuning line="5"><tuning-step>B</tuning-step><tuning-alter>0</tuning-alter><tuning-octave>3</tuning-octave></staff-tuning><staff-tuning line="6"><tuning-step>E</tuning-step><tuning-alter>0</tuning-alter><tuning-octave>4</tuning-octave></staff-tuning></staff-details></attributes><sound/><sound tempo="80"/><direction placement="above"><direction-type><metronome><beat-unit>quarter</beat-unit><per-minute>80</per-minute></metronome></direction-type><staff>1</staff></direction><harmony placement="above"><root><root-step>C</root-step></root><kind>major</kind><staff>1</staff></harmony><note><pitch><step>C</step><octave>4</octave></pitch><duration>1</duration><voice>1</voice><type>quarter</type><staff>1</staff><notations><technical><fret>1</fret><string>2</string></technical></notations></note><note><pitch><step>C</step><octave>4</octave></pitch><duration>1</duration><voice>1</voice><type>quarter</type><staff>1</staff><notations><technical><fret>1</fret><string>2</string></technical></notations></note><note><pitch><step>C</step><octave>4</octave></pitch><duration>1</duration><voice>1</voice><type>quarter</type><staff>1</staff><notations><technical><fret>1</fret><string>2</string></technical></notations></note><note><pitch><step>D</step><octave>4</octave></pitch><duration>1</duration><voice>1</voice><type>quarter</type><staff>1</staff><notations><technical><fret>3</fret><string>2</string></technical></notations></note></measure><measure number="2"><attributes/><note><pitch><step>E</step><octave>4</octave></pitch><duration>2</duration><voice>1</voice><type>half</type><staff>1</staff><notations><technical><fret>0</fret><string>1</string></technical></notations></note><harmony placement="above"><root><root-step>G</root-step></root><kind>dominant</kind><staff>1</staff></harmony><note><pitch><step>D</step><octave>4</octave></pitch><duration>2</duration><voice>1</voice><type>half</type><staff>1</staff><notations><technical><fret>3</fret><string>2</string></technical></notations></note></measure><measure number="3"><attributes/><harmony placement="above"><root><root-step>C</root-step></root><kind>major</kind><staff>1</staff></harmony><note><pitch><step>C</step><octave>4</octave></pitch><duration>1</duration><voice>1</voice><type>quarter</type><staff>1</staff><notations><technical><fret>1</fret><string>2</string></technical></notations></note><note><pitch><step>E</step><octave>4</octave></pitch><duration>1</duration><voice>1</voice><type>quarter</type><staff>1</staff><notations><technical><fret>0</fret><string>1</string></technical></notations></note><note><pitch><step>D</step><octave>4</octave></pitch><duration>1</duration><voice>1</voice><type>quarter</type><staff>1</staff><notations><technical><fret>3</fret><string>2</string></technical></notations></note><note><pitch><step>D</step><octave>4</octave></pitch><duration>1</duration><voice>1</voice><type>quarter</type><staff>1</staff><notations><technical><fret>3</fret><string>2</string></technical></notations></note></measure><measure number="4"><attributes/><harmony placement="above"><root><root-step>C</root-step></root><kind>major</kind><staff>1</staff></harmony><note><pitch><step>C</step><octave>4</octave></pitch><duration>4</duration><voice>1</voice><type>whole</type><staff>1</staff><notations><technical><fret>1</fret><string>2</string></technical></notations></note><barline location="right"><bar-style>light-heavy</bar-style><repeat direction="backward" times="2"/></barline></measure><measure number="5"><attributes/><note><pitch><step>D</step><octave>4</octave></pitch><duration>1</duration><voice>1</voice><type>quarter</type><staff>1</staff><notations><technical><fret>3</fret><string>2</string></technical></notations></note><note><pitch><step>D</step><octave>4</octave></pitch><duration>1</duration><voice>1</voice><type>quarter</type><staff>1</staff><notations><technical><fret>3</fret><string>2</string></technical></notations></note><note><pitch><step>D</step><octave>4</octave></pitch><duration>1</duration><voice>1</voice><type>quarter</type><staff>1</staff><notations><technical><fret>3</fret><string>2</string></technical></notations></note><note><pitch><step>D</step><octave>4</octave></pitch><duration>1</duration><voice>1</voice><type>quarter</type><staff>1</staff><notations><technical><fret>3</fret><string>2</string></technical></notations></note></measure><measure number="6"><attributes/><note><pitch><step>A</step><octave>3</octave></pitch><duration>2</duration><voice>1</voice><type>half</type><staff>1</staff><notations><technical><fret>2</fret><string>3</string></technical></notations></note><note><pitch><step>A</step><octave>3</octave></pitch><duration>2</duration><voice>1</voice><type>half</type><staff>1</staff><notations><technical><fret>2</fret><string>3</string></technical></notations></note></measure><measure number="7"><attributes/><note><pitch><step>D</step><octave>4</octave></pitch><duration>1</duration><voice>1</voice><type>quarter</type><staff>1</staff><notations><technical><fret>3</fret><string>2</string></technical></notations></note><note><pitch><step>C</step><octave>4</octave></pitch><duration>1</duration><voice>1</voice><type>quarter</type><staff>1</staff><notations><technical><fret>1</fret><string>2</string></technical></notations></note><note><pitch><step>B</step><octave>3</octave></pitch><duration>1</duration><voice>1</voice><type>quarter</type><staff>1</staff><notations><technical><fret>0</fret><string>2</string></technical></notations></note><note><pitch><step>A</step><octave>3</octave></pitch><duration>1</duration><voice>1</voice><type>quarter</type><staff>1</staff><notations><technical><fret>2</fret><string>3</string></technical></notations></note></measure><measure number="8"><attributes/><note><pitch><step>G</step><octave>3</octave></pitch><duration>4</duration><voice>1</voice><type>whole</type><staff>1</staff><notations><technical><fret>0</fret><string>3</string></technical></notations></note></measure><measure number="9"><attributes/><note><pitch><step>C</step><octave>4</octave></pitch><duration>1</duration><voice>1</voice><type>quarter</type><staff>1</staff><notations><technical><fret>1</fret><string>2</string></technical></notations></note><note><pitch><step>C</step><octave>4</octave></pitch><duration>1</duration><voice>1</voice><type>quarter</type><staff>1</staff><notations><technical><fret>1</fret><string>2</string></technical></notations></note><note><pitch><step>C</step><octave>4</octave></pitch><duration>1</duration><voice>1</voice><type>quarter</type><staff>1</staff><notations><technical><fret>1</fret><string>2</string></technical></notations></note><note><pitch><step>D</step><octave>4</octave></pitch><duration>1</duration><voice>1</voice><type>quarter</type><staff>1</staff><notations><technical><fret>3</fret><string>2</string></technical></notations></note></measure><measure number="10"><attributes/><note><pitch><step>E</step><octave>4</octave></pitch><duration>2</duration><voice>1</voice><type>half</type><staff>1</staff><notations><technical><fret>0</fret><string>1</string></technical></notations></note><note><pitch><step>D</step><octave>4</octave></pitch><duration>2</duration><voice>1</voice><type>half</type><staff>1</staff><notations><technical><fret>3</fret><string>2</string></technical></notations></note></measure><measure number="11"><attributes/><note><pitch><step>C</step><octave>4</octave></pitch><duration>1</duration><voice>1</voice><type>quarter</type><staff>1</staff><notations><technical><fret>1</fret><string>2</string></technical></notations></note><note><pitch><step>E</step><octave>4</octave></pitch><duration>1</duration><voice>1</voice><type>quarter</type><staff>1</staff><notations><technical><fret>0</fret><string>1</string></technical></notations></note><note><pitch><step>D</step><octave>4</octave></pitch><duration>1</duration><voice>1</voice><type>quarter</type><staff>1</staff><notations><technical><fret>3</fret><string>2</string></technical></notations></note><note><pitch><step>D</step><octave>4</octave></pitch><duration>1</duration><voice>1</voice><type>quarter</type><staff>1</staff><notations><technical><fret>3</fret><string>2</string></technical></notations></note></measure><measure number="12"><attributes/><note><pitch><step>C</step><octave>4</octave></pitch><duration>4</duration><voice>1</voice><type>whole</type><staff>1</staff><notations><technical><fret>1</fret><string>2</string></technical></notations></note><barline location="right"><bar-style>light-heavy</bar-style></barline></measure></part></score-partwise>