<svg xmlns="http://www.w3.org/2000/svg" id="osmdSvgPage1" width="500" height="2500" viewBox="0 0 500 2500">
<path stroke-width="0.3" fill="red" stroke="blue" stroke-dasharray="none" d="M260.51368 2419.11239574945M265.8208 2410.63223574945C265.93312000000003 2410.63223574945,266.07352000000003 2410.60415574945,266.242 2410.60415574945C267.53368 2410.60415574945,268.71304000000003 2411.53079574945,269.02192 2412.82247574945C269.05 2413.0471157494503,269.10616000000005 2413.27175574945,269.10616000000005 2413.52447574945C269.10616000000005 2414.25455574945,268.82536000000005 2414.9846357494503,268.348 2415.49007574945L268.26376000000005 2415.5743157494503L268.40416000000005 2415.5462357494503C269.97664000000003 2415.12503574945,271.32448 2413.77719574945,271.97032 2412.12047574945C271.9984 2411.98007574945,272.08264 2411.86775574945,272.08264 2411.83967574945C272.22304 2411.67119574945,272.39152 2411.6150357494503,272.58808000000005 2411.6150357494503C272.89696000000004 2411.6150357494503,273.14968000000005 2411.83967574945,273.14968000000005 2412.1766357494503C273.14968000000005 2412.31703574945,266.242 2435.93231574945,266.12968 2436.1007957494503C266.04544000000004 2436.29735574945,265.84888 2436.40967574945,265.62424000000004 2436.40967574945C265.3996 2436.40967574945,265.17496 2436.24119574945,265.09072000000003 2436.01655574945C265.03456 2435.98847574945,265.03456 2435.98847574945,265.03456 2435.90423574945C265.03456 2435.65151574945,265.28728 2434.89335574945,266.60704000000004 2430.40055574945C267.44944000000004 2427.48023574945,268.15144000000004 2425.0934357494502,268.15144000000004 2425.0934357494502C268.15144000000004 2425.0934357494502,268.15144000000004 2425.0934357494502,268.15144000000004 2425.0934357494502C268.15144000000004 2425.0934357494502,268.03912 2425.17767574945,267.9268 2425.26191574945C266.88784000000004 2426.04815574945,265.62424000000004 2426.46935574945,264.44488 2426.46935574945C263.37784000000005 2426.46935574945,262.33888 2426.10431574945,261.52456 2425.45847574945C260.85064 2424.89687574945,260.51368 2424.05447574945,260.51368 2423.1839957494503C260.51368 2422.5943157494503,260.65408 2422.0327157494503,260.99104 2421.4711157494503C261.58072000000004 2420.6287157494503,262.47928 2420.17943574945,263.40592000000004 2420.17943574945C264.36064000000005 2420.17943574945,265.34344000000004 2420.68487574945,265.87696 2421.66767574945C266.15776 2422.08887574945,266.27008 2422.5943157494503,266.27008 2423.07167574945C266.27008 2423.80175574945,266.01736 2424.5599157494503,265.51192000000003 2425.06535574945L265.42768 2425.1495957494503L265.62424000000004 2425.0934357494502C267.14056000000005 2424.67223574945,268.4884 2423.35247574945,269.13424000000003 2421.7238357494502C269.16232 2421.58343574945,270.95944000000003 2415.5462357494503,270.95944000000003 2415.49007574945C270.95944000000003 2415.49007574945,270.95944000000003 2415.49007574945,270.95944000000003 2415.49007574945C270.95944000000003 2415.49007574945,270.84712 2415.5743157494503,270.7348 2415.68663574945C269.72392 2416.47287574945,268.46032 2416.86599574945,267.25288 2416.86599574945C266.18584000000004 2416.86599574945,265.17496 2416.55711574945,264.36064000000005 2415.88319574945C263.63056 2415.2935157494503,263.2936 2414.47919574945,263.2936 2413.66487574945C263.2936 2412.26087574945,264.24832000000004 2410.91303574945,265.8208 2410.63223574945" opacity="1"></path>
</svg>