<?xml version="1.0" encoding="UTF-8" standalone="no"?>
<!DOCTYPE score-partwise PUBLIC "-//Recordare//DTD MusicXML 3.0 Partwise//EN" "http://www.musicxml.org/dtds/partwise.dtd">
<score-partwise version="3.0">
	<work>
		<work-number/>
		<work-title>知己</work-title>
	</work>
	<identification>
		<creator type="composer">作曲：李紫昕</creator>
		<creator type="poet">作詞：李紫昕</creator>
		<creator type="arranger"/>
		<rights/>
		<encoding>
			<software>FORTE 9 Premium</software>
			<supports attribute="new-system" element="print" type="yes" value="yes"/>
			<supports attribute="new-page" element="print" type="yes" value="yes"/>
		</encoding>
	</identification>
	<defaults>
		<scaling>
			<millimeters>2.25778</millimeters>
			<tenths>10</tenths>
		</scaling>
		<page-layout>
			<page-height>1237.5</page-height>
			<page-width>956.25</page-width>
			<page-margins type="odd">
				<left-margin>88.9844</left-margin>
				<right-margin>84.1406</right-margin>
				<top-margin>96.25</top-margin>
				<bottom-margin>56.25</bottom-margin>
			</page-margins>
			<page-margins type="even">
				<left-margin>116.875</left-margin>
				<right-margin>84.1406</right-margin>
				<top-margin>96.25</top-margin>
				<bottom-margin>56.25</bottom-margin>
			</page-margins>
		</page-layout>
		<system-layout>
			<system-margins>
				<left-margin>0</left-margin>
				<right-margin>0</right-margin>
			</system-margins>
			<system-distance>167.734</system-distance>
		</system-layout>
		<staff-layout>
			<staff-distance>80</staff-distance>
		</staff-layout>
	</defaults>
	<credit page="1">
		<credit-type>title</credit-type>
		<credit-words default-x="480.547" default-y="1181.25" font-family="Verdana" font-size="28" justify="center" valign="top">知己</credit-words>
	</credit>
	<credit page="1">
		<credit-type>composer</credit-type>
		<credit-words default-x="872.109" default-y="1137.81" font-family="Verdana" font-size="10" justify="right" valign="top">作曲：李紫昕</credit-words>
	</credit>
	<credit page="1">
		<credit-type>lyricist</credit-type>
		<credit-words default-x="872.109" default-y="1102.42" font-family="Verdana" font-size="10" justify="right" valign="top">作詞：李紫昕</credit-words>
	</credit>
	<part-list>
		<score-part id="P1">
			<part-name font-family="Verdana" font-size="16" justify="right">Piano</part-name>
			<score-instrument id="P1-I1">
				<instrument-name>Acoustic Grand Piano</instrument-name>
			</score-instrument>
			<midi-instrument id="P1-I1">
				<midi-channel>1</midi-channel>
				<midi-bank>1</midi-bank>
				<midi-program>1</midi-program>
				<volume>100</volume>
				<pan>0</pan>
			</midi-instrument>
		</score-part>
	</part-list>
	<part id="P1">
		<measure number="1">
			<print page-number="1">
				<system-layout>
					<system-margins>
						<left-margin>0</left-margin>
						<right-margin>0</right-margin>
					</system-margins>
					<top-system-distance>86.7969</top-system-distance>
				</system-layout>
			</print>
			<attributes>
				<divisions>480</divisions>
				<key>
					<fifths>0</fifths>
				</key>
				<time>
					<beats>4</beats>
					<beat-type>4</beat-type>
				</time>
				<clef>
					<sign>G</sign>
					<line>2</line>
				</clef>
			</attributes>
			<direction placement="below">
				<direction-type>
					<pedal type="stop" sign="yes"/>
				</direction-type>
			</direction>
			<direction placement="above">
				<direction-type>
					<metronome>
						<beat-unit>quarter</beat-unit>
						<per-minute>120</per-minute>
					</metronome>
				</direction-type>
				<sound tempo="120"/>
			</direction>
			<direction placement="above">
				<direction-type>
					<words font-family="Verdana" font-size="16" justify="left" valign="top">m</words>
				</direction-type>
			</direction>
			<direction placement="above">
				<direction-type>
					<words font-family="Verdana" font-size="16" justify="left" valign="top">m</words>
				</direction-type>
				<offset>240</offset>
			</direction>
			<direction placement="above">
        <direction-type>
          <dynamics default-x="5" default-y="-67" halign="left">
            <f/>
          </dynamics>
        </direction-type>
			</direction>
			<direction placement="above">
				<direction-type>
					<words font-family="Verdana" font-size="16" justify="left" valign="top">f</words>
				</direction-type>
				<offset>720</offset>
			</direction>
			<direction placement="above">
				<direction-type>
					<words font-family="Verdana" font-size="16" justify="left" valign="top">m</words>
				</direction-type>
				<offset>960</offset>
			</direction>
			<direction placement="above">
				<direction-type>
					<words font-family="Verdana" font-size="16" justify="left" valign="top">f</words>
				</direction-type>
				<offset>1440</offset>
			</direction>
			<direction placement="above">
				<direction-type>
					<words font-family="Verdana" font-size="16" justify="left" valign="top">m</words>
				</direction-type>
				<offset>1680</offset>
			</direction>
			<note>
				<pitch>
					<step>E</step>
					<octave>4</octave>
				</pitch>
				<duration>240</duration>
				<voice>1</voice>
				<type>eighth</type>
				<stem>up</stem>
				<lyric number="1" justify="center">
					<syllabic>single</syllabic>
					<text font-family="Verdana" font-size="9">漫</text>
				</lyric>
			</note>
			<note>
				<pitch>
					<step>E</step>
					<octave>4</octave>
				</pitch>
				<duration>480</duration>
				<voice>1</voice>
				<type>quarter</type>
				<stem>up</stem>
				<lyric number="1" justify="center">
					<syllabic>single</syllabic>
					<text font-family="Verdana" font-size="9">漫</text>
				</lyric>
			</note>
			<note>
				<pitch>
					<step>F</step>
					<octave>4</octave>
				</pitch>
				<duration>240</duration>
				<voice>1</voice>
				<type>eighth</type>
				<stem>up</stem>
				<lyric number="1" justify="center">
					<syllabic>single</syllabic>
					<text font-family="Verdana" font-size="9">闊</text>
				</lyric>
			</note>
			<note>
				<pitch>
					<step>E</step>
					<octave>4</octave>
				</pitch>
				<duration>480</duration>
				<voice>1</voice>
				<type>quarter</type>
				<stem>up</stem>
				<lyric number="1" justify="center">
					<syllabic>single</syllabic>
					<text font-family="Verdana" font-size="9">路</text>
				</lyric>
			</note>
			<note>
				<pitch>
					<step>F</step>
					<octave>4</octave>
				</pitch>
				<duration>240</duration>
				<voice>1</voice>
				<type>eighth</type>
				<stem>up</stem>
				<beam number="1">begin</beam>
				<lyric number="1" justify="center">
					<syllabic>single</syllabic>
					<text font-family="Verdana" font-size="9">有</text>
				</lyric>
			</note>
			<note>
				<pitch>
					<step>E</step>
					<octave>4</octave>
				</pitch>
				<duration>240</duration>
				<voice>1</voice>
				<type>eighth</type>
				<stem>up</stem>
				<beam number="1">end</beam>
				<lyric number="1" justify="center">
					<syllabic>single</syllabic>
					<text font-family="Verdana" font-size="9">著</text>
				</lyric>
			</note>
		</measure>
		<measure number="2">
			<direction placement="above">
				<direction-type>
					<words font-family="Verdana" font-size="16" justify="left" valign="top">r</words>
				</direction-type>
			</direction>
			<direction placement="above">
				<direction-type>
					<words font-family="Verdana" font-size="16" justify="left" valign="top">s</words>
				</direction-type>
				<offset>480</offset>
			</direction>
			<direction placement="above">
				<direction-type>
					<words font-family="Verdana" font-size="16" justify="left" valign="top">s</words>
				</direction-type>
				<offset>960</offset>
			</direction>
			<note>
				<pitch>
					<step>D</step>
					<octave>4</octave>
				</pitch>
				<duration>480</duration>
				<voice>1</voice>
				<type>quarter</type>
				<stem>up</stem>
				<lyric number="1" justify="center">
					<syllabic>single</syllabic>
					<text font-family="Verdana" font-size="9">誰</text>
				</lyric>
			</note>
			<note>
				<pitch>
					<step>G</step>
					<octave>4</octave>
				</pitch>
				<duration>480</duration>
				<voice>1</voice>
				<type>quarter</type>
				<stem>up</stem>
				<lyric number="1" justify="center">
					<syllabic>single</syllabic>
					<text font-family="Verdana" font-size="9">印</text>
				</lyric>
			</note>
			<note>
				<pitch>
					<step>G</step>
					<octave>4</octave>
				</pitch>
				<duration>960</duration>
				<voice>1</voice>
				<type>half</type>
				<stem>up</stem>
				<lyric number="1" justify="center">
					<syllabic>single</syllabic>
					<text font-family="Verdana" font-size="9">記，</text>
				</lyric>
			</note>
		</measure>
		<measure number="3">
			<direction placement="above">
				<direction-type>
					<words font-family="Verdana" font-size="16" justify="left" valign="top">d</words>
				</direction-type>
			</direction>
			<direction placement="above">
				<direction-type>
					<words font-family="Verdana" font-size="16" justify="left" valign="top">d</words>
				</direction-type>
				<offset>240</offset>
			</direction>
			<direction placement="above">
				<direction-type>
					<words font-family="Verdana" font-size="16" justify="left" valign="top">r</words>
				</direction-type>
				<offset>720</offset>
			</direction>
			<direction placement="above">
				<direction-type>
					<words font-family="Verdana" font-size="16" justify="left" valign="top">d</words>
				</direction-type>
				<offset>960</offset>
			</direction>
			<direction placement="above">
				<direction-type>
					<words font-family="Verdana" font-size="16" justify="left" valign="top">r</words>
				</direction-type>
				<offset>1440</offset>
			</direction>
			<direction placement="above">
				<direction-type>
					<words font-family="Verdana" font-size="16" justify="left" valign="top">d</words>
				</direction-type>
				<offset>1680</offset>
			</direction>
			<note>
				<pitch>
					<step>C</step>
					<octave>4</octave>
				</pitch>
				<duration>240</duration>
				<voice>1</voice>
				<type>eighth</type>
				<stem>up</stem>
				<lyric number="1" justify="center">
					<syllabic>single</syllabic>
					<text font-family="Verdana" font-size="9">
看</text>
				</lyric>
			</note>
			<note>
				<pitch>
					<step>C</step>
					<octave>4</octave>
				</pitch>
				<duration>480</duration>
				<voice>1</voice>
				<type>quarter</type>
				<stem>up</stem>
				<lyric number="1" justify="center">
					<syllabic>single</syllabic>
					<text font-family="Verdana" font-size="9">看</text>
				</lyric>
			</note>
			<note>
				<pitch>
					<step>D</step>
					<octave>4</octave>
				</pitch>
				<duration>240</duration>
				<voice>1</voice>
				<type>eighth</type>
				<stem>up</stem>
				<lyric number="1" justify="center">
					<syllabic>single</syllabic>
					<text font-family="Verdana" font-size="9">天</text>
				</lyric>
			</note>
			<note>
				<pitch>
					<step>C</step>
					<octave>4</octave>
				</pitch>
				<duration>480</duration>
				<voice>1</voice>
				<type>quarter</type>
				<stem>up</stem>
				<lyric number="1" justify="center">
					<syllabic>single</syllabic>
					<text font-family="Verdana" font-size="9">際</text>
				</lyric>
			</note>
			<note>
				<pitch>
					<step>D</step>
					<octave>4</octave>
				</pitch>
				<duration>240</duration>
				<voice>1</voice>
				<type>eighth</type>
				<stem>up</stem>
				<beam number="1">begin</beam>
				<lyric number="1" justify="center">
					<syllabic>single</syllabic>
					<text font-family="Verdana" font-size="9">閃</text>
				</lyric>
			</note>
			<note>
				<pitch>
					<step>C</step>
					<octave>4</octave>
				</pitch>
				<duration>240</duration>
				<voice>1</voice>
				<type>eighth</type>
				<stem>up</stem>
				<beam number="1">end</beam>
				<lyric number="1" justify="center">
					<syllabic>single</syllabic>
					<text font-family="Verdana" font-size="9">照</text>
				</lyric>
			</note>
		</measure>
		<measure number="4">
			<direction placement="above">
				<direction-type>
					<words font-family="Verdana" font-size="16" justify="left" valign="top">t,</words>
				</direction-type>
			</direction>
			<direction placement="above">
				<direction-type>
					<words font-family="Verdana" font-size="16" justify="left" valign="top">m</words>
				</direction-type>
				<offset>480</offset>
			</direction>
			<direction placement="above">
				<direction-type>
					<words font-family="Verdana" font-size="16" justify="left" valign="top">m</words>
				</direction-type>
				<offset>960</offset>
			</direction>
			<note>
				<pitch>
					<step>B</step>
					<octave>3</octave>
				</pitch>
				<duration>480</duration>
				<voice>1</voice>
				<type>quarter</type>
				<stem>up</stem>
				<lyric number="1" justify="center">
					<syllabic>single</syllabic>
					<text font-family="Verdana" font-size="9">著</text>
				</lyric>
			</note>
			<note>
				<pitch>
					<step>E</step>
					<octave>4</octave>
				</pitch>
				<duration>480</duration>
				<voice>1</voice>
				<type>quarter</type>
				<stem>up</stem>
				<lyric number="1" justify="center">
					<syllabic>single</syllabic>
					<text font-family="Verdana" font-size="9">心</text>
				</lyric>
			</note>
			<note>
				<pitch>
					<step>E</step>
					<octave>4</octave>
				</pitch>
				<duration>960</duration>
				<voice>1</voice>
				<type>half</type>
				<stem>up</stem>
				<lyric number="1" justify="center">
					<syllabic>single</syllabic>
					<text font-family="Verdana" font-size="9">扉。</text>
				</lyric>
			</note>
		</measure>
		<measure number="5">
			<print new-system="yes">
				<system-layout>
					<system-distance>167.734</system-distance>
				</system-layout>
			</print>
			<direction placement="above">
				<direction-type>
					<words font-family="Verdana" font-size="16" justify="left" valign="top">l,</words>
				</direction-type>
			</direction>
			<direction placement="above">
				<direction-type>
					<words font-family="Verdana" font-size="16" justify="left" valign="top">f</words>
				</direction-type>
				<offset>480</offset>
			</direction>
			<direction placement="above">
				<direction-type>
					<words font-family="Verdana" font-size="16" justify="left" valign="top">l,</words>
				</direction-type>
				<offset>960</offset>
			</direction>
			<direction placement="above">
				<direction-type>
					<words font-family="Verdana" font-size="16" justify="left" valign="top">l,</words>
				</direction-type>
				<offset>1680</offset>
			</direction>
			<note>
				<pitch>
					<step>A</step>
					<octave>3</octave>
				</pitch>
				<duration>480</duration>
				<voice>1</voice>
				<type>quarter</type>
				<stem>up</stem>
				<lyric number="1" justify="center">
					<syllabic>single</syllabic>
					<text font-family="Verdana" font-size="9">
成</text>
				</lyric>
			</note>
			<note>
				<pitch>
					<step>F</step>
					<octave>4</octave>
				</pitch>
				<duration>480</duration>
				<voice>1</voice>
				<type>quarter</type>
				<stem>up</stem>
				<lyric number="1" justify="center">
					<syllabic>single</syllabic>
					<text font-family="Verdana" font-size="9">長</text>
				</lyric>
			</note>
			<note>
				<pitch>
					<step>A</step>
					<octave>3</octave>
				</pitch>
				<duration>720</duration>
				<voice>1</voice>
				<type>quarter</type>
				<dot/>
				<stem>up</stem>
				<lyric number="1" justify="center">
					<syllabic>single</syllabic>
					<text font-family="Verdana" font-size="9">路</text>
				</lyric>
			</note>
			<note>
				<pitch>
					<step>A</step>
					<octave>3</octave>
				</pitch>
				<duration>240</duration>
				<voice>1</voice>
				<type>eighth</type>
				<stem>up</stem>
				<lyric number="1" justify="center">
					<syllabic>single</syllabic>
					<text font-family="Verdana" font-size="9">伴</text>
				</lyric>
			</note>
		</measure>
		<measure number="6">
			<direction placement="above">
				<direction-type>
					<words font-family="Verdana" font-size="16" justify="left" valign="top">s,</words>
				</direction-type>
			</direction>
			<direction placement="above">
				<direction-type>
					<words font-family="Verdana" font-size="16" justify="left" valign="top">m</words>
				</direction-type>
				<offset>480</offset>
			</direction>
			<direction placement="above">
				<direction-type>
					<words font-family="Verdana" font-size="16" justify="left" valign="top">m</words>
				</direction-type>
				<offset>960</offset>
			</direction>
			<note>
				<pitch>
					<step>G</step>
					<octave>3</octave>
				</pitch>
				<duration>480</duration>
				<voice>1</voice>
				<type>quarter</type>
				<stem>up</stem>
				<lyric number="1" justify="center">
					<syllabic>single</syllabic>
					<text font-family="Verdana" font-size="9">隨</text>
				</lyric>
			</note>
			<note>
				<pitch>
					<step>E</step>
					<octave>4</octave>
				</pitch>
				<duration>480</duration>
				<voice>1</voice>
				<type>quarter</type>
				<stem>up</stem>
				<lyric number="1" justify="center">
					<syllabic>single</syllabic>
					<text font-family="Verdana" font-size="9">知</text>
				</lyric>
			</note>
			<note>
				<pitch>
					<step>E</step>
					<octave>4</octave>
				</pitch>
				<duration>960</duration>
				<voice>1</voice>
				<type>half</type>
				<stem>up</stem>
				<lyric number="1" justify="center">
					<syllabic>single</syllabic>
					<text font-family="Verdana" font-size="9">己，</text>
				</lyric>
			</note>
		</measure>
		<measure number="7">
			<direction placement="above">
				<direction-type>
					<words font-family="Verdana" font-size="16" justify="left" valign="top">r</words>
				</direction-type>
			</direction>
			<direction placement="above">
				<direction-type>
					<words font-family="Verdana" font-size="16" justify="left" valign="top">d</words>
				</direction-type>
				<offset>720</offset>
			</direction>
			<direction placement="above">
				<direction-type>
					<words font-family="Verdana" font-size="16" justify="left" valign="top">t,</words>
				</direction-type>
				<offset>960</offset>
			</direction>
			<direction placement="above">
				<direction-type>
					<words font-family="Verdana" font-size="16" justify="left" valign="top">d</words>
				</direction-type>
				<offset>1440</offset>
			</direction>
			<direction placement="above">
				<direction-type>
					<words font-family="Verdana" font-size="16" justify="left" valign="top">r</words>
				</direction-type>
				<offset>1680</offset>
			</direction>
			<note>
				<pitch>
					<step>D</step>
					<octave>4</octave>
				</pitch>
				<duration>720</duration>
				<voice>1</voice>
				<type>quarter</type>
				<dot/>
				<stem>up</stem>
				<lyric number="1" justify="center">
					<syllabic>single</syllabic>
					<text font-family="Verdana" font-size="9">
歡</text>
				</lyric>
			</note>
			<note>
				<pitch>
					<step>C</step>
					<octave>4</octave>
				</pitch>
				<duration>240</duration>
				<voice>1</voice>
				<type>eighth</type>
				<stem>up</stem>
				<lyric number="1" justify="center">
					<syllabic>single</syllabic>
					<text font-family="Verdana" font-size="9">笑</text>
				</lyric>
			</note>
			<note>
				<pitch>
					<step>B</step>
					<octave>3</octave>
				</pitch>
				<duration>480</duration>
				<voice>1</voice>
				<type>quarter</type>
				<stem>up</stem>
				<lyric number="1" justify="center">
					<syllabic>single</syllabic>
					<text font-family="Verdana" font-size="9">在</text>
				</lyric>
			</note>
			<note>
				<pitch>
					<step>C</step>
					<octave>4</octave>
				</pitch>
				<duration>240</duration>
				<voice>1</voice>
				<type>eighth</type>
				<stem>up</stem>
				<beam number="1">begin</beam>
				<lyric number="1" justify="center">
					<syllabic>single</syllabic>
					<text font-family="Verdana" font-size="9">跳</text>
				</lyric>
			</note>
			<note>
				<pitch>
					<step>D</step>
					<octave>4</octave>
				</pitch>
				<duration>240</duration>
				<tie type="start"/>
				<voice>1</voice>
				<type>eighth</type>
				<stem>up</stem>
				<beam number="1">end</beam>
				<notations>
					<tied type="start" orientation="under"/>
				</notations>
				<lyric number="1" justify="center">
					<syllabic>single</syllabic>
					<text font-family="Verdana" font-size="9">起。</text>
				</lyric>
			</note>
		</measure>
		<measure number="8">
			<direction placement="above">
				<direction-type>
					<words font-family="Verdana" font-size="16" justify="left" valign="top">r</words>
				</direction-type>
			</direction>
			<note>
				<pitch>
					<step>D</step>
					<octave>4</octave>
				</pitch>
				<duration>960</duration>
				<tie type="stop"/>
				<voice>1</voice>
				<type>half</type>
				<stem>up</stem>
				<notations>
					<tied type="stop"/>
				</notations>
			</note>
			<note>
				<rest/>
				<duration>960</duration>
				<voice>1</voice>
				<type>half</type>
			</note>
		</measure>
		<measure number="9">
			<print new-system="yes">
				<system-layout>
					<system-distance>167.188</system-distance>
				</system-layout>
			</print>
			<direction placement="above">
				<direction-type>
					<words font-family="Verdana" font-size="16" justify="left" valign="top">m</words>
				</direction-type>
			</direction>
			<direction placement="above">
				<direction-type>
					<words font-family="Verdana" font-size="16" justify="left" valign="top">m</words>
				</direction-type>
				<offset>240</offset>
			</direction>
			<direction placement="above">
				<direction-type>
					<words font-family="Verdana" font-size="16" justify="left" valign="top">f</words>
				</direction-type>
				<offset>720</offset>
			</direction>
			<direction placement="above">
				<direction-type>
					<words font-family="Verdana" font-size="16" justify="left" valign="top">m</words>
				</direction-type>
				<offset>960</offset>
			</direction>
			<direction placement="above">
				<direction-type>
					<words font-family="Verdana" font-size="16" justify="left" valign="top">f</words>
				</direction-type>
				<offset>1440</offset>
			</direction>
			<direction placement="above">
				<direction-type>
					<words font-family="Verdana" font-size="16" justify="left" valign="top">m</words>
				</direction-type>
				<offset>1680</offset>
			</direction>
			<note>
				<pitch>
					<step>E</step>
					<octave>4</octave>
				</pitch>
				<duration>240</duration>
				<voice>1</voice>
				<type>eighth</type>
				<stem>up</stem>
				<lyric number="1" justify="center">
					<syllabic>single</syllabic>
					<text font-family="Verdana" font-size="9">但</text>
				</lyric>
			</note>
			<note>
				<pitch>
					<step>E</step>
					<octave>4</octave>
				</pitch>
				<duration>480</duration>
				<voice>1</voice>
				<type>quarter</type>
				<stem>up</stem>
				<lyric number="1" justify="center">
					<syllabic>single</syllabic>
					<text font-family="Verdana" font-size="9">願</text>
				</lyric>
			</note>
			<note>
				<pitch>
					<step>F</step>
					<octave>4</octave>
				</pitch>
				<duration>240</duration>
				<voice>1</voice>
				<type>eighth</type>
				<stem>up</stem>
				<lyric number="1" justify="center">
					<syllabic>single</syllabic>
					<text font-family="Verdana" font-size="9">每</text>
				</lyric>
			</note>
			<note>
				<pitch>
					<step>E</step>
					<octave>4</octave>
				</pitch>
				<duration>480</duration>
				<voice>1</voice>
				<type>quarter</type>
				<stem>up</stem>
				<lyric number="1" justify="center">
					<syllabic>single</syllabic>
					<text font-family="Verdana" font-size="9">日</text>
				</lyric>
			</note>
			<note>
				<pitch>
					<step>F</step>
					<octave>4</octave>
				</pitch>
				<duration>240</duration>
				<voice>1</voice>
				<type>eighth</type>
				<stem>up</stem>
				<beam number="1">begin</beam>
				<lyric number="1" justify="center">
					<syllabic>single</syllabic>
					<text font-family="Verdana" font-size="9">快</text>
				</lyric>
			</note>
			<note>
				<pitch>
					<step>E</step>
					<octave>4</octave>
				</pitch>
				<duration>240</duration>
				<voice>1</voice>
				<type>eighth</type>
				<stem>up</stem>
				<beam number="1">end</beam>
				<lyric number="1" justify="center">
					<syllabic>single</syllabic>
					<text font-family="Verdana" font-size="9">樂</text>
				</lyric>
			</note>
		</measure>
		<measure number="10">
			<direction placement="above">
				<direction-type>
					<words font-family="Verdana" font-size="16" justify="left" valign="top">r</words>
				</direction-type>
			</direction>
			<direction placement="above">
				<direction-type>
					<words font-family="Verdana" font-size="16" justify="left" valign="top">s</words>
				</direction-type>
				<offset>480</offset>
			</direction>
			<direction placement="above">
				<direction-type>
					<words font-family="Verdana" font-size="16" justify="left" valign="top">s</words>
				</direction-type>
				<offset>960</offset>
			</direction>
			<note>
				<pitch>
					<step>D</step>
					<octave>4</octave>
				</pitch>
				<duration>480</duration>
				<voice>1</voice>
				<type>quarter</type>
				<stem>up</stem>
				<lyric number="1" justify="center">
					<syllabic>single</syllabic>
					<text font-family="Verdana" font-size="9">在</text>
				</lyric>
			</note>
			<note>
				<pitch>
					<step>G</step>
					<octave>4</octave>
				</pitch>
				<duration>480</duration>
				<voice>1</voice>
				<type>quarter</type>
				<stem>up</stem>
				<lyric number="1" justify="center">
					<syllabic>single</syllabic>
					<text font-family="Verdana" font-size="9">一</text>
				</lyric>
			</note>
			<note>
				<pitch>
					<step>G</step>
					<octave>4</octave>
				</pitch>
				<duration>960</duration>
				<voice>1</voice>
				<type>half</type>
				<stem>up</stem>
				<lyric number="1" justify="center">
					<syllabic>single</syllabic>
					<text font-family="Verdana" font-size="9">起，</text>
				</lyric>
			</note>
		</measure>
		<measure number="11">
			<direction placement="above">
				<direction-type>
					<words font-family="Verdana" font-size="16" justify="left" valign="top">d</words>
				</direction-type>
			</direction>
			<direction placement="above">
				<direction-type>
					<words font-family="Verdana" font-size="16" justify="left" valign="top">d</words>
				</direction-type>
				<offset>240</offset>
			</direction>
			<direction placement="above">
				<direction-type>
					<words font-family="Verdana" font-size="16" justify="left" valign="top">r</words>
				</direction-type>
				<offset>720</offset>
			</direction>
			<direction placement="above">
				<direction-type>
					<words font-family="Verdana" font-size="16" justify="left" valign="top">d</words>
				</direction-type>
				<offset>960</offset>
			</direction>
			<direction placement="above">
				<direction-type>
					<words font-family="Verdana" font-size="16" justify="left" valign="top">r</words>
				</direction-type>
				<offset>1440</offset>
			</direction>
			<direction placement="above">
				<direction-type>
					<words font-family="Verdana" font-size="16" justify="left" valign="top">d</words>
				</direction-type>
				<offset>1680</offset>
			</direction>
			<note>
				<pitch>
					<step>C</step>
					<octave>4</octave>
				</pitch>
				<duration>240</duration>
				<voice>1</voice>
				<type>eighth</type>
				<stem>up</stem>
				<lyric number="1" justify="center">
					<syllabic>single</syllabic>
					<text font-family="Verdana" font-size="9">
碰</text>
				</lyric>
			</note>
			<note>
				<pitch>
					<step>C</step>
					<octave>4</octave>
				</pitch>
				<duration>480</duration>
				<voice>1</voice>
				<type>quarter</type>
				<stem>up</stem>
				<lyric number="1" justify="center">
					<syllabic>single</syllabic>
					<text font-family="Verdana" font-size="9">上</text>
				</lyric>
			</note>
			<note>
				<pitch>
					<step>D</step>
					<octave>4</octave>
				</pitch>
				<duration>240</duration>
				<voice>1</voice>
				<type>eighth</type>
				<stem>up</stem>
				<lyric number="1" justify="center">
					<syllabic>single</syllabic>
					<text font-family="Verdana" font-size="9">風</text>
				</lyric>
			</note>
			<note>
				<pitch>
					<step>C</step>
					<octave>4</octave>
				</pitch>
				<duration>480</duration>
				<voice>1</voice>
				<type>quarter</type>
				<stem>up</stem>
				<lyric number="1" justify="center">
					<syllabic>single</syllabic>
					<text font-family="Verdana" font-size="9">雨</text>
				</lyric>
			</note>
			<note>
				<pitch>
					<step>D</step>
					<octave>4</octave>
				</pitch>
				<duration>240</duration>
				<voice>1</voice>
				<type>eighth</type>
				<stem>up</stem>
				<beam number="1">begin</beam>
				<lyric number="1" justify="center">
					<syllabic>single</syllabic>
					<text font-family="Verdana" font-size="9">倚</text>
				</lyric>
			</note>
			<note>
				<pitch>
					<step>C</step>
					<octave>4</octave>
				</pitch>
				<duration>240</duration>
				<voice>1</voice>
				<type>eighth</type>
				<stem>up</stem>
				<beam number="1">end</beam>
				<lyric number="1" justify="center">
					<syllabic>single</syllabic>
					<text font-family="Verdana" font-size="9">靠</text>
				</lyric>
			</note>
		</measure>
		<measure number="12">
			<direction placement="above">
				<direction-type>
					<words font-family="Verdana" font-size="16" justify="left" valign="top">t,</words>
				</direction-type>
			</direction>
			<direction placement="above">
				<direction-type>
					<words font-family="Verdana" font-size="16" justify="left" valign="top">m</words>
				</direction-type>
				<offset>480</offset>
			</direction>
			<direction placement="above">
				<direction-type>
					<words font-family="Verdana" font-size="16" justify="left" valign="top">m</words>
				</direction-type>
				<offset>960</offset>
			</direction>
			<note>
				<pitch>
					<step>B</step>
					<octave>3</octave>
				</pitch>
				<duration>480</duration>
				<voice>1</voice>
				<type>quarter</type>
				<stem>up</stem>
				<lyric number="1" justify="center">
					<syllabic>single</syllabic>
					<text font-family="Verdana" font-size="9">在</text>
				</lyric>
			</note>
			<note>
				<pitch>
					<step>E</step>
					<octave>4</octave>
				</pitch>
				<duration>480</duration>
				<voice>1</voice>
				<type>quarter</type>
				<stem>up</stem>
				<lyric number="1" justify="center">
					<syllabic>single</syllabic>
					<text font-family="Verdana" font-size="9">一</text>
				</lyric>
			</note>
			<note>
				<pitch>
					<step>E</step>
					<octave>4</octave>
				</pitch>
				<duration>960</duration>
				<voice>1</voice>
				<type>half</type>
				<stem>up</stem>
				<lyric number="1" justify="center">
					<syllabic>single</syllabic>
					<text font-family="Verdana" font-size="9">起。</text>
				</lyric>
			</note>
		</measure>
		<measure number="13">
			<print new-system="yes">
				<system-layout>
					<system-distance>167.734</system-distance>
				</system-layout>
			</print>
			<direction placement="above">
				<direction-type>
					<words font-family="Verdana" font-size="16" justify="left" valign="top">l,</words>
				</direction-type>
			</direction>
			<direction placement="above">
				<direction-type>
					<words font-family="Verdana" font-size="16" justify="left" valign="top">f</words>
				</direction-type>
				<offset>480</offset>
			</direction>
			<direction placement="above">
				<direction-type>
					<words font-family="Verdana" font-size="16" justify="left" valign="top">f</words>
				</direction-type>
				<offset>960</offset>
			</direction>
			<direction placement="above">
				<direction-type>
					<words font-family="Verdana" font-size="16" justify="left" valign="top">f</words>
				</direction-type>
				<offset>1200</offset>
			</direction>
			<direction placement="above">
				<direction-type>
					<words font-family="Verdana" font-size="16" justify="left" valign="top">s</words>
				</direction-type>
				<offset>1440</offset>
			</direction>
			<direction placement="above">
				<direction-type>
					<words font-family="Verdana" font-size="16" justify="left" valign="top">f</words>
				</direction-type>
				<offset>1680</offset>
			</direction>
			<note>
				<pitch>
					<step>A</step>
					<octave>3</octave>
				</pitch>
				<duration>480</duration>
				<voice>1</voice>
				<type>quarter</type>
				<stem>up</stem>
				<lyric number="1" justify="center">
					<syllabic>single</syllabic>
					<text font-family="Verdana" font-size="9">
朋</text>
				</lyric>
			</note>
			<note>
				<pitch>
					<step>F</step>
					<octave>4</octave>
				</pitch>
				<duration>480</duration>
				<voice>1</voice>
				<type>quarter</type>
				<stem>up</stem>
				<lyric number="1" justify="center">
					<syllabic>single</syllabic>
					<text font-family="Verdana" font-size="9">友</text>
				</lyric>
			</note>
			<note>
				<pitch>
					<step>F</step>
					<octave>4</octave>
				</pitch>
				<duration>240</duration>
				<voice>1</voice>
				<type>eighth</type>
				<stem>up</stem>
				<beam number="1">begin</beam>
				<lyric number="1" justify="center">
					<syllabic>single</syllabic>
					<text font-family="Verdana" font-size="9">你</text>
				</lyric>
			</note>
			<note>
				<pitch>
					<step>F</step>
					<octave>4</octave>
				</pitch>
				<duration>240</duration>
				<voice>1</voice>
				<type>eighth</type>
				<stem>up</stem>
				<beam number="1">continue</beam>
				<lyric number="1" justify="center">
					<syllabic>single</syllabic>
					<text font-family="Verdana" font-size="9">要</text>
				</lyric>
			</note>
			<note>
				<pitch>
					<step>G</step>
					<octave>4</octave>
				</pitch>
				<duration>240</duration>
				<voice>1</voice>
				<type>eighth</type>
				<stem>up</stem>
				<beam number="1">continue</beam>
				<lyric number="1" justify="center">
					<syllabic>single</syllabic>
					<text font-family="Verdana" font-size="9">把</text>
				</lyric>
			</note>
			<note>
				<pitch>
					<step>F</step>
					<octave>4</octave>
				</pitch>
				<duration>240</duration>
				<voice>1</voice>
				<type>eighth</type>
				<stem>up</stem>
				<beam number="1">end</beam>
				<lyric number="1" justify="center">
					<syllabic>single</syllabic>
					<text font-family="Verdana" font-size="9">我</text>
				</lyric>
			</note>
		</measure>
		<measure number="14">
			<direction placement="above">
				<direction-type>
					<words font-family="Verdana" font-size="16" justify="left" valign="top">m</words>
				</direction-type>
			</direction>
			<direction placement="above">
				<direction-type>
					<words font-family="Verdana" font-size="16" justify="left" valign="top">r</words>
				</direction-type>
				<offset>480</offset>
			</direction>
			<direction placement="above">
				<direction-type>
					<words font-family="Verdana" font-size="16" justify="left" valign="top">d</words>
				</direction-type>
				<offset>960</offset>
			</direction>
			<direction placement="above">
				<direction-type>
					<words font-family="Verdana" font-size="16" justify="left" valign="top">d</words>
				</direction-type>
				<offset>1680</offset>
			</direction>
			<note>
				<pitch>
					<step>E</step>
					<octave>4</octave>
				</pitch>
				<duration>480</duration>
				<voice>1</voice>
				<type>quarter</type>
				<stem>up</stem>
				<lyric number="1" justify="center">
					<syllabic>single</syllabic>
					<text font-family="Verdana" font-size="9">心</text>
				</lyric>
			</note>
			<note>
				<pitch>
					<step>D</step>
					<octave>4</octave>
				</pitch>
				<duration>480</duration>
				<voice>1</voice>
				<type>quarter</type>
				<stem>up</stem>
				<lyric number="1" justify="center">
					<syllabic>single</syllabic>
					<text font-family="Verdana" font-size="9">中</text>
				</lyric>
			</note>
			<note>
				<pitch>
					<step>C</step>
					<octave>4</octave>
				</pitch>
				<duration>720</duration>
				<voice>1</voice>
				<type>quarter</type>
				<dot/>
				<stem>up</stem>
				<lyric number="1" justify="center">
					<syllabic>single</syllabic>
					<text font-family="Verdana" font-size="9">記，</text>
				</lyric>
			</note>
			<note>
				<pitch>
					<step>C</step>
					<octave>4</octave>
				</pitch>
				<duration>240</duration>
				<voice>1</voice>
				<type>eighth</type>
				<stem>up</stem>
				<lyric number="1" justify="center">
					<syllabic>single</syllabic>
					<text font-family="Verdana" font-size="9">
迎</text>
				</lyric>
			</note>
		</measure>
		<measure number="15">
			<direction placement="above">
				<direction-type>
					<words font-family="Verdana" font-size="16" justify="left" valign="top">l</words>
				</direction-type>
			</direction>
			<direction placement="above">
				<direction-type>
					<words font-family="Verdana" font-size="16" justify="left" valign="top">l</words>
				</direction-type>
				<offset>720</offset>
			</direction>
			<direction placement="above">
				<direction-type>
					<words font-family="Verdana" font-size="16" justify="left" valign="top">l</words>
				</direction-type>
				<offset>960</offset>
			</direction>
			<direction placement="above">
				<direction-type>
					<words font-family="Verdana" font-size="16" justify="left" valign="top">l</words>
				</direction-type>
				<offset>1440</offset>
			</direction>
			<note>
				<pitch>
					<step>A</step>
					<octave>4</octave>
				</pitch>
				<duration>720</duration>
				<voice>1</voice>
				<type>quarter</type>
				<dot/>
				<stem>up</stem>
				<lyric number="1" justify="center">
					<syllabic>single</syllabic>
					<text font-family="Verdana" font-size="9">風</text>
				</lyric>
			</note>
			<note>
				<pitch>
					<step>A</step>
					<octave>4</octave>
				</pitch>
				<duration>240</duration>
				<voice>1</voice>
				<type>eighth</type>
				<stem>up</stem>
				<lyric number="1" justify="center">
					<syllabic>single</syllabic>
					<text font-family="Verdana" font-size="9">振</text>
				</lyric>
			</note>
			<note>
				<pitch>
					<step>A</step>
					<octave>4</octave>
				</pitch>
				<duration>480</duration>
				<voice>1</voice>
				<type>quarter</type>
				<stem>up</stem>
				<lyric number="1" justify="center">
					<syllabic>single</syllabic>
					<text font-family="Verdana" font-size="9">翅</text>
				</lyric>
			</note>
			<note>
				<pitch>
					<step>A</step>
					<octave>4</octave>
				</pitch>
				<duration>480</duration>
				<voice>1</voice>
				<type>quarter</type>
				<stem>up</stem>
				<lyric number="1" justify="center">
					<syllabic>single</syllabic>
					<text font-family="Verdana" font-size="9">遠</text>
				</lyric>
			</note>
		</measure>
		<measure number="16">
			<direction placement="above">
				<direction-type>
					<words font-family="Verdana" font-size="16" justify="left" valign="top">t</words>
				</direction-type>
			</direction>
			<direction placement="above">
				<direction-type>
					<words font-family="Verdana" font-size="16" justify="left" valign="top">d'</words>
				</direction-type>
				<offset>1440</offset>
			</direction>
			<direction placement="above">
				<direction-type>
					<words font-family="Verdana" font-size="16" justify="left" valign="top">t</words>
				</direction-type>
				<offset>1680</offset>
			</direction>
			<note>
				<pitch>
					<step>B</step>
					<octave>4</octave>
				</pitch>
				<duration>1440</duration>
				<voice>1</voice>
				<type>half</type>
				<dot/>
				<lyric number="1" justify="center">
					<syllabic>single</syllabic>
					<text font-family="Verdana" font-size="9">飛。</text>
				</lyric>
			</note>
			<note>
				<pitch>
					<step>C</step>
					<octave>5</octave>
				</pitch>
				<duration>240</duration>
				<voice>1</voice>
				<type>eighth</type>
				<stem>down</stem>
				<beam number="1">begin</beam>
				<lyric number="1" justify="center">
					<syllabic>single</syllabic>
					<text font-family="Verdana" font-size="9">心</text>
				</lyric>
			</note>
			<note>
				<pitch>
					<step>B</step>
					<octave>4</octave>
				</pitch>
				<duration>240</duration>
				<voice>1</voice>
				<type>eighth</type>
				<stem>down</stem>
				<beam number="1">end</beam>
				<lyric number="1" justify="center">
					<syllabic>single</syllabic>
					<text font-family="Verdana" font-size="9">中</text>
				</lyric>
			</note>
		</measure>
		<measure number="17">
			<print new-system="yes">
				<system-layout>
					<system-distance>167.734</system-distance>
				</system-layout>
			</print>
			<direction placement="above">
				<direction-type>
					<words font-family="Verdana" font-size="16" justify="left" valign="top">l</words>
				</direction-type>
			</direction>
			<direction placement="above">
				<direction-type>
					<words font-family="Verdana" font-size="16" justify="left" valign="top">m</words>
				</direction-type>
				<offset>720</offset>
			</direction>
			<direction placement="above">
				<direction-type>
					<words font-family="Verdana" font-size="16" justify="left" valign="top">m</words>
				</direction-type>
				<offset>960</offset>
			</direction>
			<direction placement="above">
				<direction-type>
					<words font-family="Verdana" font-size="16" justify="left" valign="top">d'</words>
				</direction-type>
				<offset>1440</offset>
			</direction>
			<direction placement="above">
				<direction-type>
					<words font-family="Verdana" font-size="16" justify="left" valign="top">t</words>
				</direction-type>
				<offset>1680</offset>
			</direction>
			<note>
				<pitch>
					<step>A</step>
					<octave>4</octave>
				</pitch>
				<duration>720</duration>
				<voice>1</voice>
				<type>quarter</type>
				<dot/>
				<stem>up</stem>
				<lyric number="1" justify="center">
					<syllabic>single</syllabic>
					<text font-family="Verdana" font-size="9">的</text>
				</lyric>
			</note>
			<note>
				<pitch>
					<step>E</step>
					<octave>4</octave>
				</pitch>
				<duration>240</duration>
				<voice>1</voice>
				<type>eighth</type>
				<stem>up</stem>
				<lyric number="1" justify="center">
					<syllabic>single</syllabic>
					<text font-family="Verdana" font-size="9">願</text>
				</lyric>
			</note>
			<note>
				<pitch>
					<step>E</step>
					<octave>4</octave>
				</pitch>
				<duration>480</duration>
				<voice>1</voice>
				<type>quarter</type>
				<stem>up</stem>
				<lyric number="1" justify="center">
					<syllabic>single</syllabic>
					<text font-family="Verdana" font-size="9">望</text>
				</lyric>
			</note>
			<note>
				<pitch>
					<step>C</step>
					<octave>5</octave>
				</pitch>
				<duration>240</duration>
				<voice>1</voice>
				<type>eighth</type>
				<stem>down</stem>
				<beam number="1">begin</beam>
				<lyric number="1" justify="center">
					<syllabic>single</syllabic>
					<text font-family="Verdana" font-size="9">
歡</text>
				</lyric>
			</note>
			<note>
				<pitch>
					<step>B</step>
					<octave>4</octave>
				</pitch>
				<duration>240</duration>
				<voice>1</voice>
				<type>eighth</type>
				<stem>down</stem>
				<beam number="1">end</beam>
				<lyric number="1" justify="center">
					<syllabic>single</syllabic>
					<text font-family="Verdana" font-size="9">欣</text>
				</lyric>
			</note>
		</measure>
		<measure number="18">
			<direction placement="above">
				<direction-type>
					<words font-family="Verdana" font-size="16" justify="left" valign="top">l</words>
				</direction-type>
			</direction>
			<direction placement="above">
				<direction-type>
					<words font-family="Verdana" font-size="16" justify="left" valign="top">f</words>
				</direction-type>
				<offset>720</offset>
			</direction>
			<direction placement="above">
				<direction-type>
					<words font-family="Verdana" font-size="16" justify="left" valign="top">f</words>
				</direction-type>
				<offset>960</offset>
			</direction>
			<note>
				<pitch>
					<step>A</step>
					<octave>4</octave>
				</pitch>
				<duration>720</duration>
				<voice>1</voice>
				<type>quarter</type>
				<dot/>
				<stem>up</stem>
				<lyric number="1" justify="center">
					<syllabic>single</syllabic>
					<text font-family="Verdana" font-size="9">中</text>
				</lyric>
			</note>
			<note>
				<pitch>
					<step>F</step>
					<octave>4</octave>
				</pitch>
				<duration>240</duration>
				<voice>1</voice>
				<type>eighth</type>
				<stem>up</stem>
				<lyric number="1" justify="center">
					<syllabic>single</syllabic>
					<text font-family="Verdana" font-size="9">茁</text>
				</lyric>
			</note>
			<note>
				<pitch>
					<step>F</step>
					<octave>4</octave>
				</pitch>
				<duration>960</duration>
				<voice>1</voice>
				<type>half</type>
				<stem>up</stem>
				<lyric number="1" justify="center">
					<syllabic>single</syllabic>
					<text font-family="Verdana" font-size="9">壯，</text>
				</lyric>
			</note>
		</measure>
		<measure number="19">
			<direction placement="above">
				<direction-type>
					<words font-family="Verdana" font-size="16" justify="left" valign="top">t</words>
				</direction-type>
			</direction>
			<direction placement="above">
				<direction-type>
					<words font-family="Verdana" font-size="16" justify="left" valign="top">l</words>
				</direction-type>
				<offset>720</offset>
			</direction>
			<direction placement="above">
				<direction-type>
					<words font-family="Verdana" font-size="16" justify="left" valign="top">s</words>
				</direction-type>
				<offset>960</offset>
			</direction>
			<direction placement="above">
				<direction-type>
					<words font-family="Verdana" font-size="16" justify="left" valign="top">r</words>
				</direction-type>
				<offset>1280</offset>
			</direction>
			<direction placement="above">
				<direction-type>
					<words font-family="Verdana" font-size="16" justify="left" valign="top">f</words>
				</direction-type>
				<offset>1600</offset>
			</direction>
			<note>
				<pitch>
					<step>B</step>
					<octave>4</octave>
				</pitch>
				<duration>720</duration>
				<voice>1</voice>
				<type>quarter</type>
				<dot/>
				<stem>down</stem>
				<lyric number="1" justify="center">
					<syllabic>single</syllabic>
					<text font-family="Verdana" font-size="9">
知</text>
				</lyric>
			</note>
			<note>
				<pitch>
					<step>A</step>
					<octave>4</octave>
				</pitch>
				<duration>240</duration>
				<voice>1</voice>
				<type>eighth</type>
				<stem>up</stem>
				<lyric number="1" justify="center">
					<syllabic>single</syllabic>
					<text font-family="Verdana" font-size="9">己</text>
				</lyric>
			</note>
			<note>
				<pitch>
					<step>G</step>
					<octave>4</octave>
				</pitch>
				<duration>320</duration>
				<voice>1</voice>
				<type>quarter</type>
				<time-modification>
					<actual-notes>3</actual-notes>
					<normal-notes>2</normal-notes>
					<normal-type>quarter</normal-type>
				</time-modification>
				<stem>up</stem>
				<notations>
					<tuplet type="start" placement="above" bracket="yes"/>
				</notations>
				<lyric number="1" justify="center">
					<syllabic>single</syllabic>
					<text font-family="Verdana" font-size="9">永</text>
				</lyric>
			</note>
			<note>
				<pitch>
					<step>D</step>
					<octave>4</octave>
				</pitch>
				<duration>320</duration>
				<voice>1</voice>
				<type>quarter</type>
				<time-modification>
					<actual-notes>3</actual-notes>
					<normal-notes>2</normal-notes>
					<normal-type>quarter</normal-type>
				</time-modification>
				<stem>up</stem>
				<lyric number="1" justify="center">
					<syllabic>single</syllabic>
					<text font-family="Verdana" font-size="9">隨</text>
				</lyric>
			</note>
			<note>
				<pitch>
					<step>F</step>
					<octave>4</octave>
				</pitch>
				<duration>320</duration>
				<voice>1</voice>
				<type>quarter</type>
				<time-modification>
					<actual-notes>3</actual-notes>
					<normal-notes>2</normal-notes>
					<normal-type>quarter</normal-type>
				</time-modification>
				<stem>up</stem>
				<notations>
					<tuplet type="stop"/>
				</notations>
				<lyric number="1" justify="center">
					<syllabic>single</syllabic>
					<text font-family="Verdana" font-size="9">盼</text>
				</lyric>
			</note>
		</measure>
		<measure number="20">
			<direction placement="above">
				<direction-type>
					<words font-family="Verdana" font-size="16" justify="left" valign="top">m</words>
				</direction-type>
			</direction>
			<direction placement="above">
				<direction-type>
					<words font-family="Verdana" font-size="16" justify="left" valign="top">d'</words>
				</direction-type>
				<offset>1440</offset>
			</direction>
			<direction placement="above">
				<direction-type>
					<words font-family="Verdana" font-size="16" justify="left" valign="top">t</words>
				</direction-type>
				<offset>1680</offset>
			</direction>
			<note>
				<pitch>
					<step>E</step>
					<octave>4</octave>
				</pitch>
				<duration>1440</duration>
				<voice>1</voice>
				<type>half</type>
				<dot/>
				<lyric number="1" justify="center">
					<syllabic>single</syllabic>
					<text font-family="Verdana" font-size="9">望。</text>
				</lyric>
			</note>
			<note>
				<pitch>
					<step>C</step>
					<octave>5</octave>
				</pitch>
				<duration>240</duration>
				<voice>1</voice>
				<type>eighth</type>
				<stem>down</stem>
				<beam number="1">begin</beam>
				<lyric number="1" justify="center">
					<syllabic>single</syllabic>
					<text font-family="Verdana" font-size="9">
手</text>
				</lyric>
			</note>
			<note>
				<pitch>
					<step>B</step>
					<octave>4</octave>
				</pitch>
				<duration>240</duration>
				<voice>1</voice>
				<type>eighth</type>
				<stem>down</stem>
				<beam number="1">end</beam>
				<lyric number="1" justify="center">
					<syllabic>single</syllabic>
					<text font-family="Verdana" font-size="9">牽</text>
				</lyric>
			</note>
		</measure>
		<measure number="21">
			<print new-page="yes" page-number="2">
				<system-layout>
					<top-system-distance>40</top-system-distance>
				</system-layout>
			</print>
			<direction placement="above">
				<direction-type>
					<words font-family="Verdana" font-size="16" justify="left" valign="top">l</words>
				</direction-type>
			</direction>
			<direction placement="above">
				<direction-type>
					<words font-family="Verdana" font-size="16" justify="left" valign="top">m</words>
				</direction-type>
				<offset>720</offset>
			</direction>
			<direction placement="above">
				<direction-type>
					<words font-family="Verdana" font-size="16" justify="left" valign="top">m</words>
				</direction-type>
				<offset>960</offset>
			</direction>
			<direction placement="above">
				<direction-type>
					<words font-family="Verdana" font-size="16" justify="left" valign="top">d'</words>
				</direction-type>
				<offset>1440</offset>
			</direction>
			<direction placement="above">
				<direction-type>
					<words font-family="Verdana" font-size="16" justify="left" valign="top">t</words>
				</direction-type>
				<offset>1680</offset>
			</direction>
			<note>
				<pitch>
					<step>A</step>
					<octave>4</octave>
				</pitch>
				<duration>720</duration>
				<voice>1</voice>
				<type>quarter</type>
				<dot/>
				<stem>up</stem>
				<lyric number="1" justify="center">
					<syllabic>single</syllabic>
					<text font-family="Verdana" font-size="9">手</text>
				</lyric>
			</note>
			<note>
				<pitch>
					<step>E</step>
					<octave>4</octave>
				</pitch>
				<duration>240</duration>
				<voice>1</voice>
				<type>eighth</type>
				<stem>up</stem>
				<lyric number="1" justify="center">
					<syllabic>single</syllabic>
					<text font-family="Verdana" font-size="9">互</text>
				</lyric>
			</note>
			<note>
				<pitch>
					<step>E</step>
					<octave>4</octave>
				</pitch>
				<duration>480</duration>
				<voice>1</voice>
				<type>quarter</type>
				<stem>up</stem>
				<lyric number="1" justify="center">
					<syllabic>single</syllabic>
					<text font-family="Verdana" font-size="9">助</text>
				</lyric>
			</note>
			<note>
				<pitch>
					<step>C</step>
					<octave>5</octave>
				</pitch>
				<duration>240</duration>
				<voice>1</voice>
				<type>eighth</type>
				<stem>down</stem>
				<beam number="1">begin</beam>
				<lyric number="1" justify="center">
					<syllabic>single</syllabic>
					<text font-family="Verdana" font-size="9">
溫</text>
				</lyric>
			</note>
			<note>
				<pitch>
					<step>B</step>
					<octave>4</octave>
				</pitch>
				<duration>240</duration>
				<voice>1</voice>
				<type>eighth</type>
				<stem>down</stem>
				<beam number="1">end</beam>
				<lyric number="1" justify="center">
					<syllabic>single</syllabic>
					<text font-family="Verdana" font-size="9">馨</text>
				</lyric>
			</note>
		</measure>
		<measure number="22">
			<direction placement="above">
				<direction-type>
					<words font-family="Verdana" font-size="16" justify="left" valign="top">l</words>
				</direction-type>
			</direction>
			<direction placement="above">
				<direction-type>
					<words font-family="Verdana" font-size="16" justify="left" valign="top">f</words>
				</direction-type>
				<offset>720</offset>
			</direction>
			<direction placement="above">
				<direction-type>
					<words font-family="Verdana" font-size="16" justify="left" valign="top">f</words>
				</direction-type>
				<offset>960</offset>
			</direction>
			<note>
				<pitch>
					<step>A</step>
					<octave>4</octave>
				</pitch>
				<duration>720</duration>
				<voice>1</voice>
				<type>quarter</type>
				<dot/>
				<stem>up</stem>
				<lyric number="1" justify="center">
					<syllabic>single</syllabic>
					<text font-family="Verdana" font-size="9">的</text>
				</lyric>
			</note>
			<note>
				<pitch>
					<step>F</step>
					<octave>4</octave>
				</pitch>
				<duration>240</duration>
				<voice>1</voice>
				<type>eighth</type>
				<stem>up</stem>
				<lyric number="1" justify="center">
					<syllabic>single</syllabic>
					<text font-family="Verdana" font-size="9">發</text>
				</lyric>
			</note>
			<note>
				<pitch>
					<step>F</step>
					<octave>4</octave>
				</pitch>
				<duration>960</duration>
				<voice>1</voice>
				<type>half</type>
				<stem>up</stem>
				<lyric number="1" justify="center">
					<syllabic>single</syllabic>
					<text font-family="Verdana" font-size="9">放，</text>
				</lyric>
			</note>
		</measure>
		<measure number="23">
			<barline location="left">
				<ending type="start" number="1"/>
			</barline>
			<direction placement="above">
				<direction-type>
					<words font-family="Verdana" font-size="16" justify="left" valign="top">t</words>
				</direction-type>
			</direction>
			<direction placement="above">
				<direction-type>
					<words font-family="Verdana" font-size="16" justify="left" valign="top">t</words>
				</direction-type>
				<offset>480</offset>
			</direction>
			<direction placement="above">
				<direction-type>
					<words font-family="Verdana" font-size="16" justify="left" valign="top">l</words>
				</direction-type>
				<offset>720</offset>
			</direction>
			<direction placement="above">
				<direction-type>
					<words font-family="Verdana" font-size="16" justify="left" valign="top">s</words>
				</direction-type>
				<offset>960</offset>
			</direction>
			<direction placement="above">
				<direction-type>
					<words font-family="Verdana" font-size="16" justify="left" valign="top">t</words>
				</direction-type>
				<offset>1440</offset>
			</direction>
			<note>
				<pitch>
					<step>B</step>
					<octave>4</octave>
				</pitch>
				<duration>480</duration>
				<voice>1</voice>
				<type>quarter</type>
				<stem>down</stem>
				<lyric number="1" justify="center">
					<syllabic>single</syllabic>
					<text font-family="Verdana" font-size="9">
知</text>
				</lyric>
			</note>
			<note>
				<pitch>
					<step>B</step>
					<octave>4</octave>
				</pitch>
				<duration>240</duration>
				<voice>1</voice>
				<type>eighth</type>
				<stem>up</stem>
				<beam number="1">begin</beam>
				<lyric number="1" justify="center">
					<syllabic>single</syllabic>
					<text font-family="Verdana" font-size="9">己</text>
				</lyric>
			</note>
			<note>
				<pitch>
					<step>A</step>
					<octave>4</octave>
				</pitch>
				<duration>240</duration>
				<voice>1</voice>
				<type>eighth</type>
				<stem>up</stem>
				<beam number="1">end</beam>
				<lyric number="1" justify="center">
					<syllabic>single</syllabic>
					<text font-family="Verdana" font-size="9">閃</text>
				</lyric>
			</note>
			<note>
				<pitch>
					<step>G</step>
					<octave>4</octave>
				</pitch>
				<duration>480</duration>
				<voice>1</voice>
				<type>quarter</type>
				<stem>up</stem>
				<lyric number="1" justify="center">
					<syllabic>single</syllabic>
					<text font-family="Verdana" font-size="9">照</text>
				</lyric>
			</note>
			<note>
				<pitch>
					<step>B</step>
					<octave>4</octave>
				</pitch>
				<duration>480</duration>
				<voice>1</voice>
				<type>quarter</type>
				<stem>down</stem>
				<lyric number="1" justify="center">
					<syllabic>single</syllabic>
					<text font-family="Verdana" font-size="9">星</text>
				</lyric>
			</note>
		</measure>
		<measure number="24">
			<direction placement="above">
				<direction-type>
					<words font-family="Verdana" font-size="16" justify="left" valign="top">l</words>
				</direction-type>
			</direction>
			<note>
				<pitch>
					<step>A</step>
					<octave>4</octave>
				</pitch>
				<duration>1920</duration>
				<voice>1</voice>
				<type>whole</type>
				<lyric number="1" justify="center">
					<syllabic>single</syllabic>
					<text font-family="Verdana" font-size="9">光。</text>
				</lyric>
			</note>
			<barline location="right">
				<bar-style>light-heavy</bar-style>
				<ending type="stop" number="1"/>
				<repeat direction="backward"/>
			</barline>
		</measure>
		<measure number="25">
			<print new-system="yes">
				<system-layout>
					<system-distance>185</system-distance>
				</system-layout>
			</print>
			<barline location="left">
				<ending type="start" number="2"/>
			</barline>
			<direction placement="above">
				<direction-type>
					<words font-family="Verdana" font-size="16" justify="left" valign="top">t</words>
				</direction-type>
			</direction>
			<direction placement="above">
				<direction-type>
					<words font-family="Verdana" font-size="16" justify="left" valign="top">t</words>
				</direction-type>
				<offset>240</offset>
			</direction>
			<direction placement="above">
				<direction-type>
					<words font-family="Verdana" font-size="16" justify="left" valign="top">l</words>
				</direction-type>
				<offset>720</offset>
			</direction>
			<direction placement="above">
				<direction-type>
					<words font-family="Verdana" font-size="16" justify="left" valign="top">s</words>
				</direction-type>
				<offset>960</offset>
			</direction>
			<direction placement="above">
				<direction-type>
					<words font-family="Verdana" font-size="16" justify="left" valign="top">t</words>
				</direction-type>
				<offset>1440</offset>
			</direction>
			<note>
				<pitch>
					<step>B</step>
					<octave>4</octave>
				</pitch>
				<duration>240</duration>
				<voice>1</voice>
				<type>eighth</type>
				<stem>down</stem>
				<lyric number="1" justify="center">
					<syllabic>single</syllabic>
					<text font-family="Verdana" font-size="9">知</text>
				</lyric>
			</note>
			<note>
				<pitch>
					<step>B</step>
					<octave>4</octave>
				</pitch>
				<duration>480</duration>
				<voice>1</voice>
				<type>quarter</type>
				<stem>down</stem>
				<lyric number="1" justify="center">
					<syllabic>single</syllabic>
					<text font-family="Verdana" font-size="9">己</text>
				</lyric>
			</note>
			<note>
				<pitch>
					<step>A</step>
					<octave>4</octave>
				</pitch>
				<duration>240</duration>
				<voice>1</voice>
				<type>eighth</type>
				<stem>up</stem>
				<lyric number="1" justify="center">
					<syllabic>single</syllabic>
					<text font-family="Verdana" font-size="9">閃</text>
				</lyric>
			</note>
			<note>
				<pitch>
					<step>G</step>
					<octave>4</octave>
				</pitch>
				<duration>480</duration>
				<voice>1</voice>
				<type>quarter</type>
				<stem>up</stem>
				<lyric number="1" justify="center">
					<syllabic>single</syllabic>
					<text font-family="Verdana" font-size="9">照</text>
				</lyric>
			</note>
			<note>
				<pitch>
					<step>B</step>
					<octave>4</octave>
				</pitch>
				<duration>480</duration>
				<voice>1</voice>
				<type>quarter</type>
				<stem>down</stem>
				<lyric number="1" justify="center">
					<syllabic>single</syllabic>
					<text font-family="Verdana" font-size="9">星</text>
				</lyric>
			</note>
			<barline location="right">
				<ending type="discontinue" number="2"/>
			</barline>
		</measure>
		<measure number="26">
			<direction placement="above">
				<direction-type>
					<words font-family="Verdana" font-size="16" justify="left" valign="top">l</words>
				</direction-type>
			</direction>
			<note>
				<pitch>
					<step>A</step>
					<octave>4</octave>
				</pitch>
				<duration>1920</duration>
				<voice>1</voice>
				<type>whole</type>
				<lyric number="1" justify="center">
					<syllabic>single</syllabic>
					<text font-family="Verdana" font-size="9">光。</text>
				</lyric>
			</note>
		</measure>
		<measure number="27">
			<note>
				<rest/>
				<duration>1920</duration>
				<voice>1</voice>
				<type>whole</type>
			</note>
		</measure>
		<measure number="28">
			<direction placement="above">
				<direction-type>
					<words font-family="Verdana" font-size="16" justify="left" valign="top">d'</words>
				</direction-type>
				<offset>1440</offset>
			</direction>
			<direction placement="above">
				<direction-type>
					<words font-family="Verdana" font-size="16" justify="left" valign="top">t</words>
				</direction-type>
				<offset>1680</offset>
			</direction>
			<note>
				<rest/>
				<duration>1440</duration>
				<voice>1</voice>
				<type>half</type>
				<dot/>
			</note>
			<note>
				<pitch>
					<step>C</step>
					<octave>5</octave>
				</pitch>
				<duration>240</duration>
				<voice>1</voice>
				<type>eighth</type>
				<stem>down</stem>
				<beam number="1">begin</beam>
				<lyric number="1" justify="center">
					<syllabic>single</syllabic>
					<text font-family="Verdana" font-size="9">心</text>
				</lyric>
			</note>
			<note>
				<pitch>
					<step>B</step>
					<octave>4</octave>
				</pitch>
				<duration>240</duration>
				<voice>1</voice>
				<type>eighth</type>
				<stem>down</stem>
				<beam number="1">end</beam>
				<lyric number="1" justify="center">
					<syllabic>single</syllabic>
					<text font-family="Verdana" font-size="9">中</text>
				</lyric>
			</note>
		</measure>
		<measure number="29">
			<print new-system="yes">
				<system-layout>
					<system-distance>185</system-distance>
				</system-layout>
			</print>
			<direction placement="above">
				<direction-type>
					<words font-family="Verdana" font-size="16" justify="left" valign="top">l</words>
				</direction-type>
			</direction>
			<direction placement="above">
				<direction-type>
					<words font-family="Verdana" font-size="16" justify="left" valign="top">m</words>
				</direction-type>
				<offset>720</offset>
			</direction>
			<direction placement="above">
				<direction-type>
					<words font-family="Verdana" font-size="16" justify="left" valign="top">m</words>
				</direction-type>
				<offset>960</offset>
			</direction>
			<direction placement="above">
				<direction-type>
					<words font-family="Verdana" font-size="16" justify="left" valign="top">d'</words>
				</direction-type>
				<offset>1440</offset>
			</direction>
			<direction placement="above">
				<direction-type>
					<words font-family="Verdana" font-size="16" justify="left" valign="top">t</words>
				</direction-type>
				<offset>1680</offset>
			</direction>
			<note>
				<pitch>
					<step>A</step>
					<octave>4</octave>
				</pitch>
				<duration>720</duration>
				<voice>1</voice>
				<type>quarter</type>
				<dot/>
				<stem>up</stem>
				<lyric number="1" justify="center">
					<syllabic>single</syllabic>
					<text font-family="Verdana" font-size="9">的</text>
				</lyric>
			</note>
			<note>
				<pitch>
					<step>E</step>
					<octave>4</octave>
				</pitch>
				<duration>240</duration>
				<voice>1</voice>
				<type>eighth</type>
				<stem>up</stem>
				<lyric number="1" justify="center">
					<syllabic>single</syllabic>
					<text font-family="Verdana" font-size="9">願</text>
				</lyric>
			</note>
			<note>
				<pitch>
					<step>E</step>
					<octave>4</octave>
				</pitch>
				<duration>480</duration>
				<voice>1</voice>
				<type>quarter</type>
				<stem>up</stem>
				<lyric number="1" justify="center">
					<syllabic>single</syllabic>
					<text font-family="Verdana" font-size="9">望</text>
				</lyric>
			</note>
			<note>
				<pitch>
					<step>C</step>
					<octave>5</octave>
				</pitch>
				<duration>240</duration>
				<voice>1</voice>
				<type>eighth</type>
				<stem>down</stem>
				<beam number="1">begin</beam>
				<lyric number="1" justify="center">
					<syllabic>single</syllabic>
					<text font-family="Verdana" font-size="9">
歡</text>
				</lyric>
			</note>
			<note>
				<pitch>
					<step>B</step>
					<octave>4</octave>
				</pitch>
				<duration>240</duration>
				<voice>1</voice>
				<type>eighth</type>
				<stem>down</stem>
				<beam number="1">end</beam>
				<lyric number="1" justify="center">
					<syllabic>single</syllabic>
					<text font-family="Verdana" font-size="9">欣</text>
				</lyric>
			</note>
		</measure>
		<measure number="30">
			<direction placement="above">
				<direction-type>
					<words font-family="Verdana" font-size="16" justify="left" valign="top">l</words>
				</direction-type>
			</direction>
			<direction placement="above">
				<direction-type>
					<words font-family="Verdana" font-size="16" justify="left" valign="top">f</words>
				</direction-type>
				<offset>720</offset>
			</direction>
			<direction placement="above">
				<direction-type>
					<words font-family="Verdana" font-size="16" justify="left" valign="top">f</words>
				</direction-type>
				<offset>960</offset>
			</direction>
			<note>
				<pitch>
					<step>A</step>
					<octave>4</octave>
				</pitch>
				<duration>720</duration>
				<voice>1</voice>
				<type>quarter</type>
				<dot/>
				<stem>up</stem>
				<lyric number="1" justify="center">
					<syllabic>single</syllabic>
					<text font-family="Verdana" font-size="9">中</text>
				</lyric>
			</note>
			<note>
				<pitch>
					<step>F</step>
					<octave>4</octave>
				</pitch>
				<duration>240</duration>
				<voice>1</voice>
				<type>eighth</type>
				<stem>up</stem>
				<lyric number="1" justify="center">
					<syllabic>single</syllabic>
					<text font-family="Verdana" font-size="9">茁</text>
				</lyric>
			</note>
			<note>
				<pitch>
					<step>F</step>
					<octave>4</octave>
				</pitch>
				<duration>960</duration>
				<voice>1</voice>
				<type>half</type>
				<stem>up</stem>
				<lyric number="1" justify="center">
					<syllabic>single</syllabic>
					<text font-family="Verdana" font-size="9">壯，</text>
				</lyric>
			</note>
		</measure>
		<measure number="31">
			<direction placement="above">
				<direction-type>
					<words font-family="Verdana" font-size="16" justify="left" valign="top">t</words>
				</direction-type>
			</direction>
			<direction placement="above">
				<direction-type>
					<words font-family="Verdana" font-size="16" justify="left" valign="top">l</words>
				</direction-type>
				<offset>720</offset>
			</direction>
			<direction placement="above">
				<direction-type>
					<words font-family="Verdana" font-size="16" justify="left" valign="top">s</words>
				</direction-type>
				<offset>960</offset>
			</direction>
			<direction placement="above">
				<direction-type>
					<words font-family="Verdana" font-size="16" justify="left" valign="top">r</words>
				</direction-type>
				<offset>1280</offset>
			</direction>
			<direction placement="above">
				<direction-type>
					<words font-family="Verdana" font-size="16" justify="left" valign="top">f</words>
				</direction-type>
				<offset>1600</offset>
			</direction>
			<note>
				<pitch>
					<step>B</step>
					<octave>4</octave>
				</pitch>
				<duration>720</duration>
				<voice>1</voice>
				<type>quarter</type>
				<dot/>
				<stem>down</stem>
				<lyric number="1" justify="center">
					<syllabic>single</syllabic>
					<text font-family="Verdana" font-size="9">
知</text>
				</lyric>
			</note>
			<note>
				<pitch>
					<step>A</step>
					<octave>4</octave>
				</pitch>
				<duration>240</duration>
				<voice>1</voice>
				<type>eighth</type>
				<stem>up</stem>
				<lyric number="1" justify="center">
					<syllabic>single</syllabic>
					<text font-family="Verdana" font-size="9">己</text>
				</lyric>
			</note>
			<note>
				<pitch>
					<step>G</step>
					<octave>4</octave>
				</pitch>
				<duration>320</duration>
				<voice>1</voice>
				<type>quarter</type>
				<time-modification>
					<actual-notes>3</actual-notes>
					<normal-notes>2</normal-notes>
					<normal-type>quarter</normal-type>
				</time-modification>
				<stem>up</stem>
				<notations>
					<tuplet type="start" placement="above" bracket="yes"/>
				</notations>
				<lyric number="1" justify="center">
					<syllabic>single</syllabic>
					<text font-family="Verdana" font-size="9">永</text>
				</lyric>
			</note>
			<note>
				<pitch>
					<step>D</step>
					<octave>4</octave>
				</pitch>
				<duration>320</duration>
				<voice>1</voice>
				<type>quarter</type>
				<time-modification>
					<actual-notes>3</actual-notes>
					<normal-notes>2</normal-notes>
					<normal-type>quarter</normal-type>
				</time-modification>
				<stem>up</stem>
				<lyric number="1" justify="center">
					<syllabic>single</syllabic>
					<text font-family="Verdana" font-size="9">隨</text>
				</lyric>
			</note>
			<note>
				<pitch>
					<step>F</step>
					<octave>4</octave>
				</pitch>
				<duration>320</duration>
				<voice>1</voice>
				<type>quarter</type>
				<time-modification>
					<actual-notes>3</actual-notes>
					<normal-notes>2</normal-notes>
					<normal-type>quarter</normal-type>
				</time-modification>
				<stem>up</stem>
				<notations>
					<tuplet type="stop"/>
				</notations>
				<lyric number="1" justify="center">
					<syllabic>single</syllabic>
					<text font-family="Verdana" font-size="9">盼</text>
				</lyric>
			</note>
		</measure>
		<measure number="32">
			<direction placement="above">
				<direction-type>
					<words font-family="Verdana" font-size="16" justify="left" valign="top">m</words>
				</direction-type>
			</direction>
			<direction placement="above">
				<direction-type>
					<words font-family="Verdana" font-size="16" justify="left" valign="top">d'</words>
				</direction-type>
				<offset>1440</offset>
			</direction>
			<direction placement="above">
				<direction-type>
					<words font-family="Verdana" font-size="16" justify="left" valign="top">t</words>
				</direction-type>
				<offset>1680</offset>
			</direction>
			<note>
				<pitch>
					<step>E</step>
					<octave>4</octave>
				</pitch>
				<duration>1440</duration>
				<voice>1</voice>
				<type>half</type>
				<dot/>
				<lyric number="1" justify="center">
					<syllabic>single</syllabic>
					<text font-family="Verdana" font-size="9">望。</text>
				</lyric>
			</note>
			<note>
				<pitch>
					<step>C</step>
					<octave>5</octave>
				</pitch>
				<duration>240</duration>
				<voice>1</voice>
				<type>eighth</type>
				<stem>down</stem>
				<beam number="1">begin</beam>
				<lyric number="1" justify="center">
					<syllabic>single</syllabic>
					<text font-family="Verdana" font-size="9">
手</text>
				</lyric>
			</note>
			<note>
				<pitch>
					<step>B</step>
					<octave>4</octave>
				</pitch>
				<duration>240</duration>
				<voice>1</voice>
				<type>eighth</type>
				<stem>down</stem>
				<beam number="1">end</beam>
				<lyric number="1" justify="center">
					<syllabic>single</syllabic>
					<text font-family="Verdana" font-size="9">牽</text>
				</lyric>
			</note>
		</measure>
		<measure number="33">
			<print new-system="yes">
				<system-layout>
					<system-distance>185</system-distance>
				</system-layout>
			</print>
			<direction placement="above">
				<direction-type>
					<words font-family="Verdana" font-size="16" justify="left" valign="top">l</words>
				</direction-type>
			</direction>
			<direction placement="above">
				<direction-type>
					<words font-family="Verdana" font-size="16" justify="left" valign="top">m</words>
				</direction-type>
				<offset>720</offset>
			</direction>
			<direction placement="above">
				<direction-type>
					<words font-family="Verdana" font-size="16" justify="left" valign="top">m</words>
				</direction-type>
				<offset>960</offset>
			</direction>
			<direction placement="above">
				<direction-type>
					<words font-family="Verdana" font-size="16" justify="left" valign="top">d'</words>
				</direction-type>
				<offset>1440</offset>
			</direction>
			<direction placement="above">
				<direction-type>
					<words font-family="Verdana" font-size="16" justify="left" valign="top">t</words>
				</direction-type>
				<offset>1680</offset>
			</direction>
			<note>
				<pitch>
					<step>A</step>
					<octave>4</octave>
				</pitch>
				<duration>720</duration>
				<voice>1</voice>
				<type>quarter</type>
				<dot/>
				<stem>up</stem>
				<lyric number="1" justify="center">
					<syllabic>single</syllabic>
					<text font-family="Verdana" font-size="9">手</text>
				</lyric>
			</note>
			<note>
				<pitch>
					<step>E</step>
					<octave>4</octave>
				</pitch>
				<duration>240</duration>
				<voice>1</voice>
				<type>eighth</type>
				<stem>up</stem>
				<lyric number="1" justify="center">
					<syllabic>single</syllabic>
					<text font-family="Verdana" font-size="9">互</text>
				</lyric>
			</note>
			<note>
				<pitch>
					<step>E</step>
					<octave>4</octave>
				</pitch>
				<duration>480</duration>
				<voice>1</voice>
				<type>quarter</type>
				<stem>up</stem>
				<lyric number="1" justify="center">
					<syllabic>single</syllabic>
					<text font-family="Verdana" font-size="9">助</text>
				</lyric>
			</note>
			<note>
				<pitch>
					<step>C</step>
					<octave>5</octave>
				</pitch>
				<duration>240</duration>
				<voice>1</voice>
				<type>eighth</type>
				<stem>down</stem>
				<beam number="1">begin</beam>
				<lyric number="1" justify="center">
					<syllabic>single</syllabic>
					<text font-family="Verdana" font-size="9">
溫</text>
				</lyric>
			</note>
			<note>
				<pitch>
					<step>B</step>
					<octave>4</octave>
				</pitch>
				<duration>240</duration>
				<voice>1</voice>
				<type>eighth</type>
				<stem>down</stem>
				<beam number="1">end</beam>
				<lyric number="1" justify="center">
					<syllabic>single</syllabic>
					<text font-family="Verdana" font-size="9">馨</text>
				</lyric>
			</note>
		</measure>
		<measure number="34">
			<direction placement="above">
				<direction-type>
					<words font-family="Verdana" font-size="16" justify="left" valign="top">l</words>
				</direction-type>
			</direction>
			<direction placement="above">
				<direction-type>
					<words font-family="Verdana" font-size="16" justify="left" valign="top">f</words>
				</direction-type>
				<offset>720</offset>
			</direction>
			<direction placement="above">
				<direction-type>
					<words font-family="Verdana" font-size="16" justify="left" valign="top">f</words>
				</direction-type>
				<offset>960</offset>
			</direction>
			<note>
				<pitch>
					<step>A</step>
					<octave>4</octave>
				</pitch>
				<duration>720</duration>
				<voice>1</voice>
				<type>quarter</type>
				<dot/>
				<stem>up</stem>
				<lyric number="1" justify="center">
					<syllabic>single</syllabic>
					<text font-family="Verdana" font-size="9">的</text>
				</lyric>
			</note>
			<note>
				<pitch>
					<step>F</step>
					<octave>4</octave>
				</pitch>
				<duration>240</duration>
				<voice>1</voice>
				<type>eighth</type>
				<stem>up</stem>
				<lyric number="1" justify="center">
					<syllabic>single</syllabic>
					<text font-family="Verdana" font-size="9">發</text>
				</lyric>
			</note>
			<note>
				<pitch>
					<step>F</step>
					<octave>4</octave>
				</pitch>
				<duration>960</duration>
				<voice>1</voice>
				<type>half</type>
				<stem>up</stem>
				<lyric number="1" justify="center">
					<syllabic>single</syllabic>
					<text font-family="Verdana" font-size="9">放，</text>
				</lyric>
			</note>
		</measure>
		<measure number="35">
			<direction placement="above">
				<direction-type>
					<words font-family="Verdana" font-size="16" justify="left" valign="top">t</words>
				</direction-type>
			</direction>
			<direction placement="above">
				<direction-type>
					<words font-family="Verdana" font-size="16" justify="left" valign="top">t</words>
				</direction-type>
				<offset>240</offset>
			</direction>
			<direction placement="above">
				<direction-type>
					<words font-family="Verdana" font-size="16" justify="left" valign="top">l</words>
				</direction-type>
				<offset>720</offset>
			</direction>
			<direction placement="above">
				<direction-type>
					<words font-family="Verdana" font-size="16" justify="left" valign="top">s</words>
				</direction-type>
				<offset>960</offset>
			</direction>
			<direction placement="above">
				<direction-type>
					<words font-family="Verdana" font-size="16" justify="left" valign="top">t</words>
				</direction-type>
				<offset>1440</offset>
			</direction>
			<note>
				<pitch>
					<step>B</step>
					<octave>4</octave>
				</pitch>
				<duration>240</duration>
				<voice>1</voice>
				<type>eighth</type>
				<stem>down</stem>
				<lyric number="1" justify="center">
					<syllabic>single</syllabic>
					<text font-family="Verdana" font-size="9">
知</text>
				</lyric>
			</note>
			<note>
				<pitch>
					<step>B</step>
					<octave>4</octave>
				</pitch>
				<duration>480</duration>
				<voice>1</voice>
				<type>quarter</type>
				<stem>down</stem>
				<lyric number="1" justify="center">
					<syllabic>single</syllabic>
					<text font-family="Verdana" font-size="9">己</text>
				</lyric>
			</note>
			<note>
				<pitch>
					<step>A</step>
					<octave>4</octave>
				</pitch>
				<duration>240</duration>
				<voice>1</voice>
				<type>eighth</type>
				<stem>up</stem>
				<lyric number="1" justify="center">
					<syllabic>single</syllabic>
					<text font-family="Verdana" font-size="9">閃</text>
				</lyric>
			</note>
			<note>
				<pitch>
					<step>G</step>
					<octave>4</octave>
				</pitch>
				<duration>480</duration>
				<voice>1</voice>
				<type>quarter</type>
				<stem>up</stem>
				<lyric number="1" justify="center">
					<syllabic>single</syllabic>
					<text font-family="Verdana" font-size="9">照</text>
				</lyric>
			</note>
			<note>
				<pitch>
					<step>B</step>
					<octave>4</octave>
				</pitch>
				<duration>480</duration>
				<voice>1</voice>
				<type>quarter</type>
				<stem>down</stem>
				<lyric number="1" justify="center">
					<syllabic>single</syllabic>
					<text font-family="Verdana" font-size="9">星</text>
				</lyric>
			</note>
		</measure>
		<measure number="36">
			<direction placement="above">
				<direction-type>
					<words font-family="Verdana" font-size="16" justify="left" valign="top">l</words>
				</direction-type>
			</direction>
			<note>
				<pitch>
					<step>A</step>
					<octave>4</octave>
				</pitch>
				<duration>1920</duration>
				<voice>1</voice>
				<type>whole</type>
				<lyric number="1" justify="center">
					<syllabic>single</syllabic>
					<text font-family="Verdana" font-size="9">光。</text>
				</lyric>
			</note>
			<barline location="right">
				<bar-style>light-heavy</bar-style>
			</barline>
		</measure>
	</part>
</score-partwise>